<svg class="icon" viewBox="0 0 1024 1024" xmlns="http://www.w3.org/2000/svg" width="128" height="128"><path d="M900.583 355.955l-78.006-19.773c-51.033-69.56 54.466-61.33 85.561-155.893 0 .002 70.466 170.499-7.555 175.666zM745.194 838.477l10.851 1.287 120.758-403.422-70.014-16.287-61.595 418.422zm135.35-415.334l13.538-52.472-75.986-17.905-7.143 52.612 69.59 17.765zm-202.52 435.359c142.32-89.295-320.14-307.393-32.466-351.634 30.012-4.561 77.367.88 81.167-17.796C763.159 309.83 406.257 35.7 225.158 157.07 25.324 290.99 64.82 474.02 184.954 665.467c120.1 191.457 350.746 282.318 493.07 193.035zm-101.567-70.593c-22.82 14.317-52.943 7.424-67.265-15.402-14.325-22.823-7.413-52.943 15.407-67.266 22.823-14.325 52.942-7.43 67.265 15.403 14.324 22.823 7.413 52.94-15.407 67.265zm22.131-388.795c-21.517 13.498-49.914 7.003-63.405-14.52-13.51-21.518-7-49.919 14.512-63.41 21.518-13.5 49.91-6.998 63.42 14.519 13.487 21.516 6.986 49.912-14.527 63.41zm-122.632-83.105c-21.529 13.499-49.924 6.996-63.416-14.52-13.506-21.517-7.005-49.913 14.509-63.41 21.517-13.498 49.913-7.003 63.42 14.512 13.491 21.524 7 49.917-14.513 63.418zm-146.685-39.445c-21.514 13.499-49.925 6.997-63.42-14.512-13.49-21.515-7.001-49.919 14.513-63.41 21.514-13.506 49.91-7.006 63.42 14.512 13.501 21.516 7.001 49.91-14.513 63.41zm-116.359 93.96c-21.521 13.498-49.899 6.995-63.404-14.522-13.492-21.516-7.006-49.92 14.512-63.416 21.514-13.491 49.91-6.99 63.415 14.527 13.506 21.514 6.991 49.91-14.523 63.41zm12.403 150.36c-21.514 13.5-49.91 6.995-63.405-14.52-13.502-21.522-7.002-49.91 14.512-63.41 21.522-13.497 49.913-6.997 63.42 14.511 13.495 21.525 6.99 49.919-14.527 63.42zm62.507 136.071c-21.5 13.499-49.91 6.997-63.401-14.519-13.506-21.514-7.006-49.91 14.516-63.413 21.514-13.495 49.91-6.998 63.412 14.52 13.494 21.517 7.01 49.914-14.527 63.412zm566.666-385.558c-11.452 8.462-27.154 20.443-29.809 28.59-2.245 6.889 2.67 16.138 7.113 22.827l69.92 17.726c16.9-2.497 21.672-20.725 20.482-43.967-41.651 16.962-1.997-35.73-39.971-6.744-21.235 16.214-26.949-14.293-27.735-18.432z"/></svg>