<svg class="icon" viewBox="0 0 1027 1024" xmlns="http://www.w3.org/2000/svg" width="128" height="128"><path d="M961.986 129.085H65.73c-35.357 0-64.018 28.66-64.018 64.018v640.181c0 35.358 28.66 64.018 64.018 64.018h896.255c35.357 0 64.018-28.66 64.018-64.018V193.103c0-35.357-28.661-64.018-64.018-64.018zm-2.047 640.181c0 35.358-28.66 64.018-64.018 64.018H129.749c-35.357 0-64.018-28.66-64.018-64.018V257.121c0-35.357 28.66-64.018 64.018-64.018h766.172c35.357 0 64.018 28.66 64.018 64.018v512.145z"/><path d="M481.85 321.14h320.09c17.676 0 32.01-14.334 32.01-32.01 0-17.682-14.334-32.009-32.01-32.009H481.85c-17.676 0-32.01 14.327-32.01 32.01 0 17.675 14.334 32.008 32.01 32.008zM801.94 385.157H609.884c-17.675 0-32.009 14.334-32.009 32.01 0 17.675 14.334 32.008 32.01 32.008h192.053c17.676 0 32.01-14.333 32.01-32.009 0-17.675-14.334-32.009-32.01-32.009zM129.75 769.28h768.218L385.82 449.175z"/></svg>