<svg class="icon" viewBox="0 0 1024 1024" xmlns="http://www.w3.org/2000/svg" width="200" height="200"><path d="M922.368 325.696c21.312 21.312 32.256 47.68 32.832 79.168v431.36c-.576 31.488-11.52 57.728-32.832 78.72-21.312 20.992-47.68 32.064-79.168 33.28h-672c-31.488-1.152-57.92-12.224-79.168-33.28-21.312-20.992-32.256-47.232-32.832-78.72v-431.36c.576-31.488 11.52-57.856 32.832-79.168s47.68-32.256 79.168-32.832h67.392L467.84 74.112c11.648-11.072 24.768-16.64 39.36-16.64 14.592 0 27.712 5.568 39.36 16.64l224 218.752h72.64c31.488.576 57.856 11.52 79.168 32.832zM820.48 454.72c0-11.648-4.544-21.888-13.568-30.656-9.024-8.768-19.392-13.44-31.04-14.016h-537.28c-11.648.576-22.016 5.248-31.04 14.016-9.024 8.768-13.568 18.944-13.568 30.656v347.392c0 11.648 4.544 22.016 13.568 31.04 9.024 9.024 19.392 13.568 31.04 13.568h537.28c11.648 0 22.016-4.544 31.04-13.568 9.024-9.024 13.568-19.392 13.568-31.04V454.72zM283.2 757.504h448v-257.28h-448v257.28zm117.248-459.392h213.504L507.2 197.504 400.448 298.112z"/></svg>