<svg class="icon" viewBox="0 0 1024 1024" xmlns="http://www.w3.org/2000/svg" width="128" height="128"><path d="M226.314 798.28c.02 1.863.051 3.256.072 4.167.01.553-.092 1.076-.123 1.629 1.25 30.822 26.655 55.52 57.774 55.52h513.905V802.99c0-11.305 9.175-20.48 20.48-20.48s20.48 9.175 20.48 20.48v77.087c0 11.305-9.175 20.48-20.48 20.48H280.945c-1.065 0-2.09-.154-3.124-.318-51.61-3.225-92.64-46.12-92.64-98.54 0-1.197.143-2.354.183-3.542-.634-60.816 0-523.387.072-573.717-.082-.716-.215-1.403-.215-2.13 0-54.507 44.34-98.846 98.847-98.846h.174v475.832c0 5.489 1.833 10.506 4.762 13.015 2.928 2.53 6.45 2.11 9.123-1.065l72.018-85.033 68.199 84.828c1.546 1.925 3.4 2.908 5.263 2.908 1.352 0 2.703-.512 3.942-1.556 2.98-2.488 4.864-7.557 4.864-13.107V123.453H818.412c11.304 0 20.48 9.175 20.48 20.48V722.77c0 11.305-9.176 20.48-20.48 20.48-.123 0-.226-.03-.349-.03-1.505.358-3.072.593-4.69.593H284.037c-30.76 0-55.93 24.146-57.723 54.467z"/></svg>