<svg class="icon" viewBox="0 0 1024 1024" xmlns="http://www.w3.org/2000/svg" width="128" height="128"><path d="M239.17 490.035c.318.307.646.604 1.025.855l5.422 1.429c-2.289 0-4.045-.528-5.422-1.429l-2.914-.768c.62 0 1.26-.051 1.89-.087-7.184-6.932.26-28.395.26-42.557l-15.16-28.16c0-17.075 4.265-16.681 21.346-16.681 17.08 0 4.638 9.277 20.1 30.925l10.824 27.837c0 16.456-20.587 27.832-37.37 28.636zm725.49-98.222c-15.514-22.297-74.476-65.551-98.197-74.225-20.613-7.541-85.822-18.56-85.822-18.56l-193.29-15.462-131.44-20.106s-24.746-6.958-117.525-21.648c-10.317-1.633-22.86-22.2-32.471-26.286-11.029-4.695-36.864-4.587-47.934 0-12.625 5.228-38.656 38.656-38.656 38.656l-30.93-38.656s-27.724 29.159-30.924 41.749c-11.597 45.62-79.637 102.057-79.637 102.057s-42.526 49.485-30.157 83.502 69.581 109.788 78.864 128.348c9.277 18.55-9.283 52.572 1.546 66.488 6.83 8.781 40.791 45.589 69.586 35.37 17.976-6.38 13.23 33.31 19.717 38.85 31.893 27.259 77.701 58.378 91.617 66.11 13.917 7.73 87.496 65.781 121.196 78.858 17.628 6.85 67.466 13.542 90.655 13.542h227.307s89.784-4.951 114.427-13.138c24.99-8.3 67-42.67 80.415-68.04 5.017-9.492 6.671-47.4 1.546-56.832-1.802-3.302-3.415-8.842-10.962-4.802-3.743 2.012-20.936-55.122-22.093-42.942-.635 6.682-6.886 60.012-11.3 55-9.835-11.172-16.824-73.273-19.655-66.258-4.834 11.96-5.576 25.18-16.016 65.48-5.376 20.771-21.744-79.74-21.744-79.74L832.64 740.9l-19.133-77.42-14.5 73.938-14.787-66.98-19.062 61.348-11.96-55.5-17.69 47.211-13.916-43.781-17.981 34.212s-83.579-73.329-107.853-85.018c-38.047-18.33-165.355-34.53-165.355-34.53l40.975-35.558s45.174-16.291 59.023-10.567c10.62 4.377 26.332 37.632 26.332 37.632l44.631-53.223 9.35 48.64 29.685-43.361 15.765 54.062 30.858-43.97 8.054 53.432 15.98-40.32 11.601-19.912 16.23 58.491 25.913-61.2c7.44-4.781 6.815-5.77 15.268-3.317 4.792 1.382 9.472 11.627 9.472 11.627l13.916 43.3 23.101-56.54 30.306 50.842s4.705-49.94 15.268-61.87c3.292-3.712 12.759 1.838 13.86 6.968 3.788 17.68.291 63.498.291 63.498s10.225-66.099 19.835-78.32c2.186-2.78 12.426 3.701 14.31 7.229 4.936 9.272 4.132 70.8 4.132 70.8l16.205-81.05s7.742 1.863 9.293 3.84c8.356 10.619 8.35 53.401 8.35 53.401l18.627-52.152 1.552-5.115c-.01 0 .466-99.164-13.927-119.854zm-531.554 51.804s-27.167-19.24-41.278-40.98c-8.734-13.45-28.451-39.772-32.563-55.28-6.343-23.942 17.792-17.399 17.792-17.399 24.76 0 26.67 18.171 43.679 51.415 0 0 37.135 62.244 12.37 62.244zm186.721-41.057c0 26.522-4.408 37.192-30.925 37.192l-76.897 2.319c-26.516 0-28.257-16.394-28.257-42.91v-17.01c0-26.516 14.075-22.036 40.591-22.036l61.47 10.05c26.517 0 33.347 9.575 34.018 20.179v12.216zm76.544 22.886l-27.059 8.116c-11.955 0-14.305-8.146-14.305-20.102v-3.491c0-11.956-1.52-23.588 10.434-23.588h35.953c11.955 0 20.49 13.578 20.49 25.533 0 11.96-13.558 13.532-25.513 13.532zm190.971-35.18l-39.818-7.73c-10.675 0-24.356-8.264-24.356-18.94l.773-5.8c0-10.675 7.496-4.255 18.166-4.255l8.893-1.93c10.676 0 36.342 8.653 36.342 19.328s10.68 19.328 0 19.328z"/></svg>