<svg class="icon" viewBox="0 0 1024 1024" xmlns="http://www.w3.org/2000/svg" width="128" height="128"><path d="M662.528 451.584q10.24 5.12 30.208 16.384t46.08 31.744 57.856 52.736 65.024 80.896 67.072 115.2 64.512 154.624q-15.36 9.216-31.232 21.504t-31.232 22.016-31.744 15.36-32.768 2.56q-44.032-9.216-78.336-8.192t-62.976 7.68-53.248 16.896-47.616 19.968-46.08 16.384-49.664 6.656q-57.344-1.024-110.592-16.896t-101.376-32.256-89.6-25.088-75.264 4.608q-20.48 8.192-41.984 1.024T70.656 936.96q-20.48-13.312-39.936-33.792 37.888-116.736 86.016-199.68t92.672-136.704 78.848-81.408 43.52-33.792q9.216-5.12 10.24-25.088t-1.024-40.448q-3.072-24.576-9.216-54.272L181.248 29.696 361.472 0q27.648 52.224 53.76 79.36t50.176 36.864 45.568 5.12 39.936-17.92Q593.92 72.704 631.808 0l181.248 29.696Q792.576 77.824 768 129.024q-20.48 44.032-47.616 97.28t-57.856 105.472q-12.288 34.816-13.824 57.344t1.536 36.864q4.096 16.384 12.288 25.6z"/></svg>