<svg class="icon" viewBox="0 0 1024 1024" xmlns="http://www.w3.org/2000/svg" width="128" height="128"><path d="M512 14.009c-278.418 0-504.168 225.75-504.219 504.219 0 278.567 225.75 504.269 504.219 504.269 278.517 0 504.269-225.75 504.269-504.269 0-278.468-225.7-504.219-504.269-504.219zm222.996 497.653c1.704 8.067 2.556 17.238 2.556 27.561 0 12.629-.852 23.252-2.556 31.871H569.78v75.769h165.216c1.704 8.018 2.556 17.189 2.556 27.512 0 12.679-.852 23.252-2.556 31.871H569.78v135.1c-6.966 1.103-14.081 2.005-21.548 2.606-7.466.601-14.982.902-22.399.902-7.466 0-14.883-.3-22.349-.902-7.417-.601-14.633-1.452-21.548-2.606v-135.1H323.585c-2.306-6.916-3.457-16.636-3.457-29.265 0-5.212.3-10.323.852-15.535.601-5.162 1.452-10.022 2.606-14.583h158.351v-75.769H323.586c-2.306-6.916-3.457-16.636-3.457-29.265 0-5.162.3-10.323.852-15.535.601-5.162 1.452-10.022 2.606-14.633h123.925L289.161 232.843c7.466-1.152 15.635-2.005 24.505-2.556 8.969-.601 17.439-.902 25.457-.902s16.335.3 24.956.852 16.335 1.404 23.252 2.556L528.444 492.72l138.607-259.927a275.888 275.888 0 0 1 22.799-2.556c7.667-.55 15.635-.852 23.653-.852s16.035.3 24.053.852c8.067.55 15.535 1.404 22.399 2.556L604.209 511.611h130.79zM496.014 706.195z"/></svg>