<?xml version="1.0" standalone="no"?><!DOCTYPE svg PUBLIC "-//W3C//DTD SVG 1.1//EN" "http://www.w3.org/Graphics/SVG/1.1/DTD/svg11.dtd"><svg t="1657691130632" class="icon" viewBox="0 0 1024 1024" version="1.1" xmlns="http://www.w3.org/2000/svg" p-id="3173" width="128" height="128" xmlns:xlink="http://www.w3.org/1999/xlink"><defs><style type="text/css">@font-face { font-family: feedback-iconfont; src: url("//at.alicdn.com/t/font_1031158_u69w8yhxdu.woff2?t=1630033759944") format("woff2"), url("//at.alicdn.com/t/font_1031158_u69w8yhxdu.woff?t=1630033759944") format("woff"), url("//at.alicdn.com/t/font_1031158_u69w8yhxdu.ttf?t=1630033759944") format("truetype"); }
</style></defs><path d="M534.1 524.2L983 204.8c0-45.1-35.3-81.9-78.5-81.9h-785c-43.2 0-78.5 36.9-78.5 81.9l448.9 319.4c13.3 9.4 30.9 9.4 44.2 0z" p-id="3174"></path><path d="M534.1 623.3c-0.1 0.1-0.2 0.1-0.3 0.1-1.4 1-3 1.8-4.5 2.6-0.8 0.4-1.6 1-2.5 1.3-1.1 0.5-2.2 0.7-3.3 1.1-1.3 0.4-2.7 1-4 1.2-1 0.2-1.9 0.2-2.9 0.3-1.5 0.2-3 0.4-4.5 0.4s-3-0.3-4.5-0.4c-1-0.1-2-0.1-2.9-0.3-1.4-0.3-2.7-0.8-4-1.2-1.1-0.4-2.2-0.6-3.3-1.1-0.9-0.4-1.7-0.9-2.5-1.3-1.5-0.8-3.1-1.6-4.5-2.6-0.1-0.1-0.2-0.1-0.3-0.1L41 303.9v515.3c0 45.1 35.3 81.9 78.5 81.9h785.1c43.2 0 78.5-36.9 78.5-81.9V303.9l-449 319.4z" p-id="3175"></path></svg>