<svg class="icon" viewBox="0 0 1024 1024" xmlns="http://www.w3.org/2000/svg" width="128" height="128"><path d="M812.6 167.5H210.8c-80.9 0-146.7 65.8-146.7 146.7v394.4c0 80.9 65.8 146.7 146.7 146.7h601.8c80.9 0 146.7-65.8 146.7-146.7V314.2c0-80.9-65.8-146.7-146.7-146.7zm-106 140.3c26.1 0 47.3 21.2 47.3 47.3s-21.2 47.3-47.3 47.3c-26.1 0-47.3-21.2-47.3-47.3s21.1-47.3 47.3-47.3zm87.6 381.8c-14 11.8-34.9 10-46.7-3.9l-107.4-127-122.8 109.8c-7.5 6.7-17.7 9.7-27.6 8-9.9-1.7-18.6-7.8-23.4-16.6l-90-161.8-135.6 208c-6.3 9.7-17 15-27.8 15-6.2 0-12.5-1.7-18.1-5.4-15.3-10-19.6-30.5-9.6-45.8l165.6-254c6.3-9.7 17.3-15.4 28.9-15 11.6.4 22.1 6.9 27.8 17L504 591.5l117.4-104.9c6.7-6 15.6-9 24.4-8.3 8.9.6 17.2 4.8 23 11.7l129.4 153c11.7 13.9 10 34.8-4 46.6z"/></svg>