<svg class="icon" viewBox="0 0 1024 1024" xmlns="http://www.w3.org/2000/svg" width="128" height="128"><path d="M812.032 119.808q50.176-5.12 87.552 8.192t62.464 37.376 36.352 55.808 7.68 62.976-21.504 59.392-51.712 44.544q-45.056 22.528-88.064 40.448t-82.432 29.696-73.216 15.872-60.416-2.048q-13.312 61.44-22.528 134.656t-9.216 150.016q0 35.84 1.536 71.68t3.584 65.536q2.048 33.792 5.12 65.536H457.728q1.024-19.456 3.072-51.2 1.024-26.624 2.048-69.632t1.024-105.472q0-79.872 10.24-152.576t23.552-131.072q-39.936 9.216-84.992-1.024t-90.112-34.304-87.04-59.392-74.752-76.288q-21.504-26.624-28.672-53.248t-2.56-52.224 18.432-48.128 32.256-40.96q16.384-15.36 38.912-23.552t48.64-9.216 53.248 4.096T373.76 71.68q25.6 12.288 54.784 33.28t56.32 48.128 50.176 57.856 38.4 61.44q16.384-28.672 43.008-54.784t58.88-46.592 67.584-34.304 69.12-16.896z"/></svg>