<svg class="icon" viewBox="0 0 1024 1024" xmlns="http://www.w3.org/2000/svg" width="128" height="128"><path d="M923.198 337.87c-21.678-53.148-53.148-99.103-96.705-142.66-84.617-84.618-188.716-128.175-307.2-130.673H512.1c-123.38 0-229.776 43.557-316.89 130.672C107.994 284.722 64.436 388.62 64.436 512s43.558 229.776 130.672 316.89S388.62 959.464 512.1 959.464c123.38 0 227.479-43.557 314.394-130.572 84.617-82.22 128.175-181.423 133.07-295.112V511.9c0-62.739-12.088-120.782-36.365-174.03zM732.085 163.74c31.47 19.381 58.043 41.06 82.22 67.734L647.468 357.251c-2.398 0-2.398 0-2.398 2.398-4.895-4.895-12.088-9.59-19.381-14.486-19.381-9.69-41.06-14.486-62.939-14.486v-2.398l-53.248-200.803c77.425-16.884 150.054-4.796 222.583 36.264zM666.85 533.88c-4.895 33.867-19.381 65.236-46.055 89.512-28.972 31.47-67.734 45.955-108.894 45.955-43.557 0-82.22-14.486-111.191-45.955-31.47-29.071-45.955-67.734-45.955-111.391 0-41.06 14.485-77.424 45.955-108.894 28.971-28.971 67.734-45.955 111.191-45.955h7.193c38.662 0 72.53 16.984 101.6 45.955 14.487 12.089 24.177 29.072 33.868 43.558 7.193 21.679 12.088 43.557 12.088 65.236l.2 21.979zm12.088-120.982c-2.398-9.69-7.193-19.381-12.088-26.574h2.397l166.937-128.175c19.381 31.47 33.867 62.938 45.956 99.203l-203.202 55.546zm-169.335 12.088c24.177 0 45.955 9.69 62.939 26.574 16.983 16.983 24.176 36.365 26.574 60.441-2.398 24.176-9.59 45.955-26.574 62.939s-38.662 26.574-62.939 26.574c-24.176 0-45.955-9.691-62.938-26.574-16.984-16.984-24.177-38.663-24.177-62.939s7.193-43.557 24.177-60.441c16.983-16.983 38.662-26.574 62.938-26.574z"/></svg>