<svg class="icon" viewBox="0 0 1024 1024" xmlns="http://www.w3.org/2000/svg" width="128" height="128"><path d="M462.3 218.05c6.64 6.33 12.03 13.34 16.18 21.59.05.1.09.21.13.33 7.54 26.53 5.15 52.51 4.12 60.54a1.645 1.645 0 0 1-2.51 1.19c-9.44-5.92-47.52-30.33-64.13-48.95-5.22-5.88-7.65-13.43-8.72-21.23-.19-1.42-2-1.91-2.91-.8-10.38 12.62-23.87 24.61-38.65 28.13-27.77 6.31-54.49 3.21-62.84 1.96-1.23-.18-1.82-1.6-1.08-2.61 6.73-9.09 33.44-44.35 53.26-59.54l.05-.05c1.08-1.05.41-2.85-1.09-2.87-12.86-.11-24.84-2.63-34-8.52-23.94-15.75-39.54-36.7-44.23-43.49-.7-1.02-.08-2.41 1.14-2.57 11.25-1.44 55.92-6.66 81.1-2.71l.15.03c12.31 2.77 23.39 12.9 32.14 23.76.96 1.19 2.86.53 2.92-1 .69-17.63 5.55-34.08 19.64-57.22a1.66 1.66 0 0 1 2.23-.58l29.1 16.63c.82.47 1.07 1.53.56 2.33-9.98 15.71-13.78 28.38-14.24 41.44-.04 1.25 1.27 2.11 2.39 1.54 12.31-6.23 25.8-10.83 37.94-9.4 28.97 3.15 52.74 14.63 60.1 18.51 1.1.58 1.19 2.11.16 2.81-9.1 6.22-44.42 29.79-68.3 38-1.16.42-1.5 1.9-.61 2.75zm67.19-8.91c-8.57 5.7-18.39 12.01-27.63 17.72-.68.42-.94 1.27-.64 2.02.57 1.38 1.13 3.07 1.7 4.77l.03.1c6.08 22.09 8.36 51.01 4.56 73.85l-5.71 36.39a1.643 1.643 0 0 1-2.5 1.14l-32.17-20.02c-20.97-13.48-50.76-32.84-68.42-51.59-.54-.57-1.39-.68-2.05-.27a91.093 91.093 0 0 1-25.52 10.71c-23.62 5.33-53.33 6.1-76.95 1.52l-37.87-7.15a1.647 1.647 0 0 1-1.05-2.56l21.4-30.67c7.62-11.43 17.52-24.38 28.19-36.57-.76 0-.76-.76-1.52-.76-9.63-6.67-19.99-14.78-28.96-23.64a1.65 1.65 0 0 0-1.74-.37c-95.47 36.01-162.81 119.58-162.81 216.76 0 71.85 36.79 136.2 93.98 179.62.7.53 1.69.42 2.26-.26 18.84-22.4 41.34-43.33 66.04-62.8 75.42-58.66 147.04-96 236.94-129.52l90.61-33.98c.51-.19 12.12-31.98 20.89-45.99.31-.49.34-1.1.08-1.62-19.68-38.96-50.43-72.72-89.34-96.89-.56-.31-1.26-.3-1.8.06zm367.13 285.39l-8.97 6.21c-.56.39-1.31.39-1.88 0l-8.88-6.15c-.05-.04-.1-.06-.15-.09-.17-.09-.63-.35-1.22-.77-.9-.64-2.16-.2-2.5.85-59.36 184.18-230.18 347.63-428.95 410.6-104.38 32.76-166.85 18.28-224.75-68.57-44.95-64.76-66.28-169.13 74.66-278.08C428.5 454.24 521.79 442.15 647.46 387.69c1.25-.54 1.35-2.3.15-2.96l-3.01-1.67c-.56-.31-.89-.93-.84-1.57l.68-8.85s1.52-61.71 92.95-105.9c19.05-9.14 37.33-15.24 55.62-18.28 10.87-2.18 21.75-2.28 32.62-1.63.91.05 1.7-.64 1.75-1.56.67-12.4.67-24.76.67-36.43-.76-18.29-3.81-34.28-6.86-44.95l-6.85-20.54c-.37-1.11.5-2.24 1.67-2.17l21.94 1.37 66.28 5.33 13.67.68c.88.04 1.57.77 1.57 1.65v12.91c0 15.24-2.29 36.57-6.1 59.43-3.75 17.98-8.23 36.69-13.45 54.7-.17.57-.01 1.18.41 1.6 8.84 8.95 16.25 18.69 22.94 31.32 7.62 15.24 13.71 32.76 18.28 52.57 16.78 88.37-44.17 131.79-44.93 131.79zm-168.1 126.25c-8.36-7.22-20.99-6.3-28.21 2.06-.7.81-70.38 80.89-133.08 106.61-10.22 4.19-15.11 15.87-10.91 26.09 3.17 7.74 10.64 12.42 18.51 12.42 2.53 0 5.1-.48 7.58-1.5 71.6-29.37 145.09-113.89 148.18-117.47 7.22-8.37 6.29-20.99-2.07-28.21zm178.76-250.43c-3.05-17.52-8.38-32-14.48-44.19-6.09-12.19-14.48-22.09-23.62-28.95l-7.52-6.15c-.52-.42-.73-1.12-.53-1.76l2.72-8.84c6.86-19.81 12.19-41.14 16-61.71 2.18-13.79 4.35-26.2 5.21-37.22.07-.91-.61-1.69-1.52-1.76l-25.23-1.99c-1.06-.08-1.92.84-1.76 1.9 1.31 8.66 2.01 18.54 2.72 28.41.76 19.05.76 40.38-2.29 60.19l-2.06 15.76c-.12.95-1.03 1.6-1.97 1.4l-16.54-3.45c-12.17-3.04-25.86-3.05-39.55-.77-.04.01-.09.01-.13.01-13.7.78-29.67 6.1-44.88 13.71-49.02 23.41-65.72 51.04-71.69 66.01-.38.95.19 2 1.19 2.22 13.29 2.88 36.25 5.14 68.22-5.76l25.38-8.23c1.23-.4 2.42.7 2.11 1.96l-6.16 25.32c-5.1 21.84-1.84 41.6 1.11 54.61.22.96 1.21 1.52 2.14 1.2 12.22-4.12 30.39-13.44 48.55-35.25l19.24-21.99c.88-1.01 2.53-.6 2.84.7l6.87 28.15c6.59 26.37 21.63 44.99 32.26 55.86.68.7 1.81.66 2.44-.08 12.21-14.27 29.79-43.58 20.93-89.31z"/></svg>