<?xml version="1.0" standalone="no"?><!DOCTYPE svg PUBLIC "-//W3C//DTD SVG 1.1//EN" "http://www.w3.org/Graphics/SVG/1.1/DTD/svg11.dtd"><svg t="1594273273696" class="icon" viewBox="0 0 1024 1024" version="1.1" xmlns="http://www.w3.org/2000/svg" p-id="3045" xmlns:xlink="http://www.w3.org/1999/xlink" width="128" height="128"><defs><style type="text/css"></style></defs><path d="M511.69714 979.930139c-135.791459 0.127924-266.018218-56.286615-361.833388-156.898939C53.856697 722.418875-0.127284 586.051758 0.00064 443.864093a26.224446 26.224446 0 0 1 10.106006-20.851632c26.67218-18.996733 56.798312-32.620652 88.651419-40.168176 48.611168-11.385247 121.655843-11.896944 193.037504 50.402106 44.325709 38.697048 96.071018 49.378712 153.572912 31.597259a240.177545 240.177545 0 0 0 75.475234-39.464593c3.837724-3.389989 36.458376-30.765752 83.918226-44.709482 46.948154-13.815806 117.434347-17.141833 187.280919 45.029292 39.336668 35.05121 82.702947 45.860799 128.883556 32.108956 22.386722-6.843941 43.366278-18.29315 61.595466-33.580083a23.921811 23.921811 0 0 1 26.480294-4.093572c8.890727 4.477344 14.519388 13.559957 14.391464 23.474077 0.063962 142.251627-53.856057 278.682706-149.863112 379.167106-95.943094 100.676286-226.041929 157.21875-361.89735 157.090826z m-88.587457-212.226123c17.781453 0 35.498945-1.471127 53.152474-4.477345 21.107481-3.7098 71.893358-15.286933 87.308216-43.11043a13.112223 13.112223 0 0 0-4.605269-17.461643 12.024868 12.024868 0 0 0-16.75806 4.605268c-5.372813 9.722234-29.614435 23.538039-69.974497 30.573866-52.640777 9.082613-129.459215 5.756586-172.633606-33.835931-41.447417-37.929503-83.150681-39.400631-110.846255-33.963855-18.165226 3.517913-35.371021 10.873551-50.530029 21.427291a13.112223 13.112223 0 0 0-2.558482 17.781453c3.837724 5.756586 11.513171 7.163751 16.949946 3.070179 2.686407-1.918862 66.392621-48.163433 130.86638 11.065437 35.754793 33.004424 90.186508 44.325709 139.629182 44.32571z m352.686813 56.670387c5.564699 0 10.361854-3.837724 11.896944-9.402423a13.048261 13.048261 0 0 0-5.308851-14.455426 219.389874 219.389874 0 0 0-66.072811-26.544256c-52.001157-11.896944-102.3393-3.837724-145.513692 23.346152a13.048261 13.048261 0 0 0-6.268282 11.257323 12.792413 12.792413 0 0 0 6.396206 11.321286 12.152792 12.152792 0 0 0 12.600526-0.447735c37.993465-23.921811 80.592199-30.765752 126.644884-20.46786 20.851632 4.669231 40.807796 12.600526 59.164908 23.602001a14.071654 14.071654 0 0 0 6.460168 1.790938zM470.76142 639.396118c44.133823 0.31981 86.796519-15.350895 120.248678-43.941937 39.784403-33.324235 88.715381-39.08082 145.257843-17.141833 27.503687 10.873551 53.088512 26.160484 76.114855 45.285141 5.116965 4.605269 13.048261 3.837724 17.333719-1.599052a13.304109 13.304109 0 0 0-1.53509-18.165226 306.122431 306.122431 0 0 0-82.638984-49.31475c-64.729607-25.328977-123.446781-18.101264-169.883238 20.787671-45.732875 38.377238-101.635717 48.099471-165.981553 28.718966a302.860366 302.860366 0 0 1-85.709163-42.023075 11.960906 11.960906 0 0 0-17.269757 2.81433 13.304109 13.304109 0 0 0 2.686406 18.037302c1.599052 1.151317 39.400631 29.678397 92.617067 45.860799 22.386722 6.907903 45.540989 10.489778 68.695255 10.681664h0.063962z m362.856781-210.499148a36.458376 36.458376 0 0 1-34.155742-21.10748c-5.564699-11.321285-4.413382-25.392939 4.093572-51.809271l3.517914-10.55374C693.349398 222.939129 665.397976 215.711416 630.346766 206.564841a816.603652 816.603652 0 0 1-13.112223-3.453951 25.584825 25.584825 0 0 1-17.909377 24.561432 101.891566 101.891566 0 0 1-27.503687 4.093572c-25.073129 0-49.122864-10.425816-69.334876-30.509904a152.997254 152.997254 0 0 1-23.985773-31.405373c-8.954689-0.511697-30.445942 1.279241-70.678079 19.508429-9.978082 4.669231-26.608218 12.152792-42.023076 12.152792a30.70179 30.70179 0 0 1-26.736142-13.112223c-13.94373-19.892201 0.447734-43.302316 5.244889-50.977763 2.750369-4.34942 5.628662-8.506954 8.698841-12.536565 8.954689-39.592517 29.934245-70.358269 62.299049-91.593673C498.584917-21.523874 632.585438 7.642827 658.809884 14.230919c38.4412-3.453951 61.019808 1.279241 72.788827 15.350895a32.300842 32.300842 0 0 1 7.227713 27.567649 24.241622 24.241622 0 0 1-2.558483 6.907903c81.487668 58.717173 133.744673 200.585028 148.967644 246.317903 68.183559 17.717491 103.810427 47.651737 105.409479 48.930977 8.123182 7.035827 11.193361 18.29315 7.675448 28.463118a24.625394 24.625394 0 0 1-23.026343 17.205795L895.469515 405.61478a30.318018 30.318018 0 0 1-5.244889-0.511697l-1.279241 1.023393c-6.396206 4.477344-13.048261 8.698841-20.020126 12.280716-13.432033 6.971865-24.945204 10.425816-35.307058 10.425816h0.063962zM486.751936 87.083708c0 6.971865 5.372813 12.664488 11.960905 12.664489a12.344678 12.344678 0 0 0 12.024868-12.664489 12.344678 12.344678 0 0 0-12.024868-12.536564 12.40864 12.40864 0 0 0-11.960905 12.536564z" p-id="3046"></path></svg>