<svg class="icon" viewBox="0 0 1024 1024" xmlns="http://www.w3.org/2000/svg" width="128" height="128"><path d="M433.839 569.174S257.296 496.13 174.687 240.05c0 0-128.103 169.825-66.675 360.157s137.254 236.98 137.254 236.98 199.13-23.932 255.504-101.23c0 0-61.108-26.875-66.931-166.784z" fill="#BFCBD9"/><path d="M754.642 355.134a274.412 274.412 0 0 0-86.927-15.997 574.676 574.676 0 0 0-49.75-227.093C597.2 65.716 571.348 20.317 523.357 2.08A31.77 31.77 0 0 0 507.777.29C306.439 26.972 121.385 188.925 77.297 377.018a511.264 511.264 0 0 0-9.661 176.99C83.12 685.408 149.604 809.96 250 895.704c92.463 78.897 216.92 128.424 337.793 128.424 98.19 0 194.011-32.666 268.43-108.78 90.798-92.814 125.768-231.54 89.198-353.501-28.666-95.438-101.74-174.687-190.78-206.713zM507.33 64.98c21.18 11.582 36.377 37.85 52.278 73.267a511.136 511.136 0 0 1 44.184 206.777c-47.255 9.79-91.503 31.578-125.96 64.02-37.498 35.257-62.1 81.968-72.051 131.143-44.28-28.635-85.04-69.395-121.033-123.08-33.082-49.4-59.253-104.173-83.952-158.371 69.81-99.373 184.093-174.751 306.502-193.756zM131.208 546.554a447.276 447.276 0 0 1 8.382-154.947c8.19-34.937 22.332-68.755 40.728-100.717 22.78 49.175 47.351 98.445 77.874 144.005 41.848 62.484 90.127 109.1 143.237 140.23-2.24 38.264 4.223 76.689 20.636 111.243 10.75 22.715 25.82 42.807 43.288 60.116a357.853 357.853 0 0 1-207.641 68.211c-69.267-72.754-114.763-168.16-126.504-268.141zm536.539 404.212c-126.76 30.522-273.549-16.157-376.186-103.757-.543-.48-.991-1.024-1.535-1.471a389.91 389.91 0 0 0 200.25-77.81c33.37 24.316 72.882 39.033 113.13 39.545a180.446 180.446 0 0 0 67.22-13.054c1.984 5.855 3.2 12.414 4.095 18.685a371.258 371.258 0 0 1-6.974 137.862zm-62.165-207.45h-1.343c-50.775-.64-100.781-34.553-124.393-84.367-30.682-64.628-12.702-152.036 41.816-203.29 53.526-50.359 138.374-66.58 211.288-40.312 7.36 2.623 14.494 5.918 21.532 9.374-31.226 12.957-57.973 37.08-72.946 67.22-5.503-1.985-10.878-4.288-16.605-5.568-45.655-10.078-95.118 4.16-125.992 36.345-29.115 30.33-39.833 76.562-27.387 117.802 11.198 36.953 38.713 62.836 75.57 71.027 36.665 8.222 76.146-5.92 100.653-35.961 20.22-24.796 26.171-55.99 16.7-85.168 12.67 21.66 17.118 47.479 11.903 69.682-11.134 46.904-59.637 83.185-110.796 83.185zm36.825-136.198c4.384 9.759 2.976 19.197-4.223 28.027-9.054 11.07-24.315 16.733-37.209 13.95-17.66-3.936-25.083-16.925-28.154-27.131-5.695-18.845-.64-41.433 12.285-54.934 12.158-12.67 31.034-19.868 50.167-19.868 5.31 0 10.654.544 15.837 1.695 10.878 2.4 21.18 7.455 30.362 14.718a31.994 31.994 0 0 0-39.033 43.511zm168.097 263.47a289.897 289.897 0 0 1-107.276 69.3c8.158-43.32 9.374-88.08 3.2-131.495-1.28-8.959-3.232-18.973-7.04-28.475 38.905-23.74 68.756-60.82 79.25-105.1 2.24-9.503 3.36-19.293 3.68-29.115 20.763.448 39.992 7.775 53.525 15.037 20.348 10.878 38.84 26.203 56.693 41.657-8.83 62.164-36.889 122.057-82.032 168.192zm40.408-238.066c-17.468-9.343-42.744-18.685-70.77-18.62a166.913 166.913 0 0 0-23.1-60.15 155.043 155.043 0 0 0-46.903-47.67 109.643 109.643 0 0 1 81.104-58.71 260.75 260.75 0 0 1 92.879 132.871c8.094 26.971 11.55 54.902 11.358 82.865a281.291 281.291 0 0 0-44.568-30.586z" fill="#BFCBD9"/></svg>