<svg class="icon" viewBox="0 0 1024 1024" xmlns="http://www.w3.org/2000/svg" width="200" height="200"><path d="M664.21 553.22s-95.19 25.1-161.39 135.87c4.32.86 176.1 174.8 176.1 174.8 30.72 29.85 80.91 29.85 111.63 0l44.57-43.27c30.72-29.85 30.72-78.31 0-108.17L664.21 553.22zm77.45 280.81c-7.79 7.35-20.33 7.35-27.69 0L570.75 695.14c-7.79-7.36-7.79-19.47 0-26.83 7.79-7.35 20.33-7.35 27.69 0L741.66 807.2c7.36 6.92 7.36 19.04 0 26.83zm62.74-61.01c-7.79 7.35-20.33 7.35-27.69 0L633.06 634.13c-7.79-7.36-7.79-19.47 0-26.83 7.79-7.35 20.33-7.35 27.69 0l143.22 138.9c8.22 6.92 8.22 19.03.43 26.82zm-501.91-394.6l116.39 115.96 55.82-54.52-116.39-115.52L386 297.08 230.23 145.64 118.6 253.81l156.2 151.43z"/><path d="M670.27 470.58c4.33 1.3 7.79 2.6 12.12 4.33 20.77 6.49 43.27 8.65 64.47 6.92 39.37-3.46 78.31-19.9 108.17-50.19 35.48-35.05 52.35-83.07 50.19-130.24 0-1.73 0-3.46-.43-5.19h-77.01l-30.72 30.72-23.37 23.36-23.8 23.8-64.04-16.87-17.31-64.04 23.8-23.8 23.36-23.37 30.72-30.72v-77.01c-1.73 0-4.32-.43-6.06-.43-46.29-1.73-93.89 14.71-129.8 50.19-30.29 30.29-47.16 68.8-50.19 108.17-1.73 23.8.86 47.59 8.65 70.09 0 .43.43.86.43 1.73 2.16 7.79 2.6 17.31-6.92 27.26C549.98 407.4 179.18 759.6 179.18 759.6c-30.72 26.4-28.56 75.29 0 104.28 28.99 28.56 77.45 30.29 104.28-.43 0 0 349.17-369.51 364.31-384.65 7.79-7.79 16.01-9.09 22.5-8.22zM249.71 828.41c-9.95 9.95-25.1 9.95-35.05 0-9.95-9.95-9.95-25.1 0-35.05 9.95-9.95 25.1-9.95 35.05 0a25.955 25.955 0 0 1 0 35.05z"/></svg>